<mxfile host="app.diagrams.net" modified="2021-04-06T12:26:37.990Z" agent="5.0 (Windows NT 10.0; Win64; x64) AppleWebKit/537.36 (KHTML, like Gecko) Chrome/89.0.4389.114 Safari/537.36" etag="4FRPSylTHkfxul7Uc82e" version="14.5.1" type="github">
  <diagram id="6a731a19-8d31-9384-78a2-239565b7b9f0" name="Page-1">
    <mxGraphModel dx="1065" dy="457" grid="1" gridSize="10" guides="1" tooltips="1" connect="1" arrows="1" fold="1" page="1" pageScale="1" pageWidth="1169" pageHeight="827" background="#ffffff" math="0" shadow="0">
      <root>
        <mxCell id="0" />
        <mxCell id="1" parent="0" />
        <mxCell id="LXEXlDb97EJj2YN9v4Dp-57" value="" style="edgeStyle=orthogonalEdgeStyle;rounded=0;orthogonalLoop=1;jettySize=auto;html=1;" edge="1" parent="1" source="2" target="LXEXlDb97EJj2YN9v4Dp-56">
          <mxGeometry relative="1" as="geometry" />
        </mxCell>
        <mxCell id="2" value="初始数据" style="shape=mxgraph.flowchart.terminator;strokeWidth=2;gradientColor=none;gradientDirection=north;fontStyle=0;html=1;" parent="1" vertex="1">
          <mxGeometry x="260" y="60" width="120" height="30" as="geometry" />
        </mxCell>
        <mxCell id="LXEXlDb97EJj2YN9v4Dp-59" value="" style="edgeStyle=orthogonalEdgeStyle;rounded=0;orthogonalLoop=1;jettySize=auto;html=1;" edge="1" parent="1" source="LXEXlDb97EJj2YN9v4Dp-56" target="LXEXlDb97EJj2YN9v4Dp-58">
          <mxGeometry relative="1" as="geometry" />
        </mxCell>
        <mxCell id="LXEXlDb97EJj2YN9v4Dp-56" value="数据预处理" style="whiteSpace=wrap;html=1;fontStyle=0;strokeWidth=2;gradientDirection=north;" vertex="1" parent="1">
          <mxGeometry x="260" y="120" width="120" height="40" as="geometry" />
        </mxCell>
        <mxCell id="LXEXlDb97EJj2YN9v4Dp-61" value="" style="edgeStyle=orthogonalEdgeStyle;rounded=0;orthogonalLoop=1;jettySize=auto;html=1;" edge="1" parent="1" source="LXEXlDb97EJj2YN9v4Dp-58" target="LXEXlDb97EJj2YN9v4Dp-60">
          <mxGeometry relative="1" as="geometry" />
        </mxCell>
        <mxCell id="LXEXlDb97EJj2YN9v4Dp-58" value="构建包围盒" style="whiteSpace=wrap;html=1;fontStyle=0;strokeWidth=2;gradientDirection=north;" vertex="1" parent="1">
          <mxGeometry x="260" y="180" width="120" height="40" as="geometry" />
        </mxCell>
        <mxCell id="LXEXlDb97EJj2YN9v4Dp-63" value="" style="edgeStyle=orthogonalEdgeStyle;rounded=0;orthogonalLoop=1;jettySize=auto;html=1;" edge="1" parent="1" source="LXEXlDb97EJj2YN9v4Dp-60" target="LXEXlDb97EJj2YN9v4Dp-62">
          <mxGeometry relative="1" as="geometry" />
        </mxCell>
        <mxCell id="LXEXlDb97EJj2YN9v4Dp-60" value="建立初始网格" style="whiteSpace=wrap;html=1;fontStyle=0;strokeWidth=2;gradientDirection=north;" vertex="1" parent="1">
          <mxGeometry x="260" y="240" width="120" height="40" as="geometry" />
        </mxCell>
        <mxCell id="LXEXlDb97EJj2YN9v4Dp-65" value="" style="edgeStyle=orthogonalEdgeStyle;rounded=0;orthogonalLoop=1;jettySize=auto;html=1;" edge="1" parent="1" source="LXEXlDb97EJj2YN9v4Dp-62" target="LXEXlDb97EJj2YN9v4Dp-64">
          <mxGeometry relative="1" as="geometry" />
        </mxCell>
        <mxCell id="LXEXlDb97EJj2YN9v4Dp-62" value="逐点插入" style="whiteSpace=wrap;html=1;fontStyle=0;strokeWidth=2;gradientDirection=north;" vertex="1" parent="1">
          <mxGeometry x="260" y="300" width="120" height="40" as="geometry" />
        </mxCell>
        <mxCell id="LXEXlDb97EJj2YN9v4Dp-67" value="" style="edgeStyle=orthogonalEdgeStyle;rounded=0;orthogonalLoop=1;jettySize=auto;html=1;" edge="1" parent="1" source="LXEXlDb97EJj2YN9v4Dp-64" target="LXEXlDb97EJj2YN9v4Dp-66">
          <mxGeometry relative="1" as="geometry" />
        </mxCell>
        <mxCell id="LXEXlDb97EJj2YN9v4Dp-64" value="建立Delaunay空腔" style="whiteSpace=wrap;html=1;fontStyle=0;strokeWidth=2;gradientDirection=north;" vertex="1" parent="1">
          <mxGeometry x="260" y="360" width="120" height="40" as="geometry" />
        </mxCell>
        <mxCell id="LXEXlDb97EJj2YN9v4Dp-73" value="" style="edgeStyle=orthogonalEdgeStyle;rounded=0;orthogonalLoop=1;jettySize=auto;html=1;" edge="1" parent="1" source="LXEXlDb97EJj2YN9v4Dp-66" target="LXEXlDb97EJj2YN9v4Dp-72">
          <mxGeometry relative="1" as="geometry" />
        </mxCell>
        <mxCell id="LXEXlDb97EJj2YN9v4Dp-77" style="edgeStyle=orthogonalEdgeStyle;rounded=0;orthogonalLoop=1;jettySize=auto;html=1;exitX=1;exitY=0.5;exitDx=0;exitDy=0;entryX=1;entryY=0.5;entryDx=0;entryDy=0;" edge="1" parent="1" source="LXEXlDb97EJj2YN9v4Dp-66" target="LXEXlDb97EJj2YN9v4Dp-62">
          <mxGeometry relative="1" as="geometry">
            <Array as="points">
              <mxPoint x="400" y="465" />
              <mxPoint x="400" y="320" />
            </Array>
          </mxGeometry>
        </mxCell>
        <mxCell id="LXEXlDb97EJj2YN9v4Dp-66" value="所有点插入完毕" style="rhombus;whiteSpace=wrap;html=1;fontStyle=0;strokeWidth=2;gradientDirection=north;" vertex="1" parent="1">
          <mxGeometry x="271.88" y="420" width="96.25" height="90" as="geometry" />
        </mxCell>
        <mxCell id="LXEXlDb97EJj2YN9v4Dp-75" value="" style="edgeStyle=orthogonalEdgeStyle;rounded=0;orthogonalLoop=1;jettySize=auto;html=1;" edge="1" parent="1" source="LXEXlDb97EJj2YN9v4Dp-72" target="LXEXlDb97EJj2YN9v4Dp-74">
          <mxGeometry relative="1" as="geometry" />
        </mxCell>
        <mxCell id="LXEXlDb97EJj2YN9v4Dp-74" value="四面体网格模型" style="whiteSpace=wrap;html=1;fontStyle=0;strokeWidth=2;gradientDirection=north;" vertex="1" parent="1">
          <mxGeometry x="260" y="600" width="120" height="40" as="geometry" />
        </mxCell>
        <mxCell id="LXEXlDb97EJj2YN9v4Dp-72" value="删除多余四面体" style="whiteSpace=wrap;html=1;fontStyle=0;strokeWidth=2;gradientDirection=north;" vertex="1" parent="1">
          <mxGeometry x="260" y="530" width="120" height="40" as="geometry" />
        </mxCell>
        <mxCell id="LXEXlDb97EJj2YN9v4Dp-78" value="否" style="text;html=1;align=center;verticalAlign=middle;resizable=0;points=[];autosize=1;" vertex="1" parent="1">
          <mxGeometry x="365" y="450" width="30" height="20" as="geometry" />
        </mxCell>
        <mxCell id="LXEXlDb97EJj2YN9v4Dp-79" value="是" style="text;html=1;align=center;verticalAlign=middle;resizable=0;points=[];autosize=1;" vertex="1" parent="1">
          <mxGeometry x="320" y="510" width="30" height="20" as="geometry" />
        </mxCell>
      </root>
    </mxGraphModel>
  </diagram>
</mxfile>
